<?xml version="1.0" encoding="UTF-8" standalone="no"?>
<svg
   width="150.46622mm"
   height="150.46622mm"
   viewBox="0 0 150.46622 150.46622"
   version="1.1"
   id="svg8"
   inkscape:version="1.3.2 (091e20ef0f, 2023-11-25)"
   sodipodi:docname="kosaryk.svg"
   xmlns:inkscape="http://www.inkscape.org/namespaces/inkscape"
   xmlns:sodipodi="http://sodipodi.sourceforge.net/DTD/sodipodi-0.dtd"
   xmlns="http://www.w3.org/2000/svg"
   xmlns:svg="http://www.w3.org/2000/svg"
   xmlns:rdf="http://www.w3.org/1999/02/22-rdf-syntax-ns#"
   xmlns:cc="http://creativecommons.org/ns#"
   xmlns:dc="http://purl.org/dc/elements/1.1/">
  <defs
     id="defs2">
    <linearGradient
       id="swatch15">
      <stop
         style="stop-color:#000000;stop-opacity:1;"
         offset="0"
         id="stop15" />
    </linearGradient>
  </defs>
  <sodipodi:namedview
     id="base"
     pagecolor="#ffffff"
     bordercolor="#666666"
     borderopacity="1.0"
     inkscape:pageopacity="0.0"
     inkscape:pageshadow="2"
     inkscape:zoom="1.212852"
     inkscape:cx="63.486724"
     inkscape:cy="340.10745"
     inkscape:document-units="mm"
     inkscape:current-layer="layer1"
     inkscape:document-rotation="0"
     showgrid="false"
     fit-margin-top="0"
     fit-margin-left="0"
     fit-margin-right="0"
     fit-margin-bottom="0"
     inkscape:window-width="1896"
     inkscape:window-height="1152"
     inkscape:window-x="1032"
     inkscape:window-y="8"
     inkscape:window-maximized="1"
     inkscape:showpageshadow="2"
     inkscape:pagecheckerboard="0"
     inkscape:deskcolor="#d1d1d1" />
  <metadata
     id="metadata5">
    <rdf:RDF>
      <cc:Work
         rdf:about="">
        <dc:format>image/svg+xml</dc:format>
        <dc:type
           rdf:resource="http://purl.org/dc/dcmitype/StillImage" />
      </cc:Work>
    </rdf:RDF>
  </metadata>
  <g
     inkscape:label="Шар 1"
     inkscape:groupmode="layer"
     id="layer1"
     transform="translate(-126.60617,-14.725182)">
    <circle
       style="opacity:1;fill:#10b981;fill-opacity:1;stroke:none;stroke-width:15.4928;stroke-linecap:round;stroke-linejoin:round;stroke-dasharray:none;stroke-dashoffset:0;stroke-opacity:1;paint-order:normal"
       id="path208"
       cx="201.83928"
       cy="89.95829"
       r="75.233109" />
    <path
       id="path129"
       style="font-variation-settings:normal;opacity:1;fill:#292524;fill-opacity:1;fill-rule:evenodd;stroke:none;stroke-width:0;stroke-linecap:round;stroke-linejoin:round;stroke-miterlimit:4;stroke-dasharray:none;stroke-dashoffset:0;stroke-opacity:1;stop-color:#000000;stop-opacity:1"
       d="m 208.36602,29.527247 a 97.627263,97.627263 0 0 0 -33.42122,6.005316 l -2.9192,1.454693 26.39426,52.970928 -26.39426,52.971436 2.9192,1.4547 a 97.627263,97.627263 0 0 0 56.70817,3.25871 74.414399,74.414399 0 0 1 -0.26872,0.0326 74.414399,74.414399 0 0 1 -0.37052,0.0434 74.414399,74.414399 0 0 1 -0.37104,0.0414 74.414399,74.414399 0 0 1 -0.37103,0.0398 74.414399,74.414399 0 0 1 -0.37104,0.0377 74.414399,74.414399 0 0 1 -0.37104,0.0357 74.414399,74.414399 0 0 1 -0.37207,0.0336 74.414399,74.414399 0 0 1 -0.37155,0.0326 74.414399,74.414399 0 0 1 -0.37207,0.03 74.414399,74.414399 0 0 1 -0.37207,0.0284 74.414399,74.414399 0 0 1 -0.37207,0.0269 74.414399,74.414399 0 0 1 -0.37259,0.0243 74.414399,74.414399 0 0 1 -0.37207,0.0232 74.414399,74.414399 0 0 1 -0.37259,0.0212 74.414399,74.414399 0 0 1 -0.37258,0.0196 74.414399,74.414399 0 0 1 -0.37259,0.017 74.414399,74.414399 0 0 1 -0.3731,0.0155 74.414399,74.414399 0 0 1 -0.37259,0.0129 74.414399,74.414399 0 0 1 -0.3731,0.0114 74.414399,74.414399 0 0 1 -0.37311,0.009 74.414399,74.414399 0 0 1 -0.3731,0.007 74.414399,74.414399 0 0 1 -0.37259,0.006 74.414399,74.414399 0 0 1 -0.37362,0.004 74.414399,74.414399 0 0 1 -0.37259,0.002 74.414399,74.414399 0 0 1 -0.3731,5.3e-4 74.414399,74.414399 0 0 1 -0.37362,-0.002 74.414399,74.414399 0 0 1 -0.37311,-0.003 74.414399,74.414399 0 0 1 -0.37258,-0.005 74.414399,74.414399 0 0 1 -0.37311,-0.007 74.414399,74.414399 0 0 1 -0.3731,-0.009 74.414399,74.414399 0 0 1 -0.37362,-0.0114 74.414399,74.414399 0 0 1 -0.37259,-0.0124 74.414399,74.414399 0 0 1 -0.37258,-0.015 74.414399,74.414399 0 0 1 -0.37311,-0.0165 74.414399,74.414399 0 0 1 -0.37259,-0.0181 74.414399,74.414399 0 0 1 -0.37207,-0.0202 74.414399,74.414399 0 0 1 -0.37258,-0.0222 74.414399,74.414399 0 0 1 -0.37311,-0.0243 74.414399,74.414399 0 0 1 -0.37155,-0.0259 74.414399,74.414399 0 0 1 -0.37207,-0.0274 74.414399,74.414399 0 0 1 -0.37259,-0.03 74.414399,74.414399 0 0 1 -0.37155,-0.0315 74.414399,74.414399 0 0 1 -0.37155,-0.0331 74.414399,74.414399 0 0 1 -0.21859,-0.0207 l -5.40019,-6.60979 -9.18084,-11.23652 V 95.024024 l 24.49566,49.161336 2.91921,-1.45469 -26.29504,-52.772486 26.29504,-52.771975 -2.91921,-1.45469 -17.8635,35.851043 H 192.90753 L 179.78792,45.251868 a 74.414399,74.414399 0 0 1 0.25683,-0.179834 74.414399,74.414399 0 0 1 0.30696,-0.212389 74.414399,74.414399 0 0 1 0.30747,-0.210842 74.414399,74.414399 0 0 1 0.30903,-0.209288 74.414399,74.414399 0 0 1 0.31006,-0.20774 74.414399,74.414399 0 0 1 0.31057,-0.20619 74.414399,74.414399 0 0 1 0.31161,-0.205155 74.414399,74.414399 0 0 1 0.31316,-0.203089 74.414399,74.414399 0 0 1 0.31419,-0.202054 74.414399,74.414399 0 0 1 0.31471,-0.199469 74.414399,74.414399 0 0 1 0.31574,-0.198957 74.414399,74.414399 0 0 1 0.3173,-0.196368 74.414399,74.414399 0 0 1 0.31781,-0.195855 74.414399,74.414399 0 0 1 0.31884,-0.19327 74.414399,74.414399 0 0 1 0.31988,-0.192236 74.414399,74.414399 0 0 1 0.32091,-0.190685 74.414399,74.414399 0 0 1 0.32194,-0.188619 74.414399,74.414399 0 0 1 0.32298,-0.187587 74.414399,74.414399 0 0 1 0.3235,-0.185518 74.414399,74.414399 0 0 1 0.32504,-0.183967 74.414399,74.414399 0 0 1 0.32505,-0.18242 74.414399,74.414399 0 0 1 0.32607,-0.180866 74.414399,74.414399 0 0 1 0.32763,-0.178801 74.414399,74.414399 0 0 1 0.32815,-0.177768 74.414399,74.414399 0 0 1 0.32918,-0.175699 74.414399,74.414399 0 0 1 0.33021,-0.174665 74.414399,74.414399 0 0 1 0.33021,-0.172082 74.414399,74.414399 0 0 1 0.33176,-0.171051 74.414399,74.414399 0 0 1 0.3328,-0.168981 74.414399,74.414399 0 0 1 0.33331,-0.167431 74.414399,74.414399 0 0 1 0.33435,-0.165883 74.414399,74.414399 0 0 1 0.33486,-0.164846 74.414399,74.414399 0 0 1 0.3359,-0.162783 74.414399,74.414399 0 0 1 0.33693,-0.160197 74.414399,74.414399 0 0 1 0.33745,-0.158647 74.414399,74.414399 0 0 1 0.33796,-0.157096 74.414399,74.414399 0 0 1 0.33952,-0.156062 74.414399,74.414399 0 0 1 0.34003,-0.153995 74.414399,74.414399 0 0 1 0.34054,-0.151929 74.414399,74.414399 0 0 1 0.34107,-0.150895 74.414399,74.414399 0 0 1 0.3421,-0.149347 74.414399,74.414399 0 0 1 0.34261,-0.146759 74.414399,74.414399 0 0 1 0.34365,-0.145211 74.414399,74.414399 0 0 1 0.34468,-0.144177 74.414399,74.414399 0 0 1 0.3452,-0.14211 74.414399,74.414399 0 0 1 0.34572,-0.139528 74.414399,74.414399 0 0 1 0.34674,-0.138491 74.414399,74.414399 0 0 1 0.34727,-0.136943 74.414399,74.414399 0 0 1 0.34727,-0.135393 74.414399,74.414399 0 0 1 0.34829,-0.132807 74.414399,74.414399 0 0 1 0.34985,-0.131776 74.414399,74.414399 0 0 1 0.34985,-0.129709 74.414399,74.414399 0 0 1 0.35037,-0.12764 74.414399,74.414399 0 0 1 0.35088,-0.126606 74.414399,74.414399 0 0 1 0.35192,-0.124024 74.414399,74.414399 0 0 1 0.35243,-0.122991 74.414399,74.414399 0 0 1 0.35243,-0.120923 74.414399,74.414399 0 0 1 0.35399,-0.119372 74.414399,74.414399 0 0 1 0.35398,-0.117305 74.414399,74.414399 0 0 1 0.35502,-0.115756 74.414399,74.414399 0 0 1 0.35553,-0.113689 74.414399,74.414399 0 0 1 0.35554,-0.112135 74.414399,74.414399 0 0 1 0.35656,-0.110072 74.414399,74.414399 0 0 1 0.35709,-0.108522 74.414399,74.414399 0 0 1 0.35708,-0.107487 74.414399,74.414399 0 0 1 0.35812,-0.104386 74.414399,74.414399 0 0 1 0.35863,-0.103351 74.414399,74.414399 0 0 1 0.35967,-0.101288 74.414399,74.414399 0 0 1 0.35915,-0.09973 74.414399,74.414399 0 0 1 0.36019,-0.09715 74.414399,74.414399 0 0 1 0.36018,-0.09612 74.414399,74.414399 0 0 1 0.36122,-0.09405 74.414399,74.414399 0 0 1 0.36174,-0.0925 74.414399,74.414399 0 0 1 0.36173,-0.09043 74.414399,74.414399 0 0 1 0.36225,-0.08888 74.414399,74.414399 0 0 1 0.36329,-0.08681 74.414399,74.414399 0 0 1 0.36328,-0.08475 74.414399,74.414399 0 0 1 0.36329,-0.0832 74.414399,74.414399 0 0 1 0.36432,-0.08113 74.414399,74.414399 0 0 1 0.36484,-0.07958 74.414399,74.414399 0 0 1 0.36483,-0.07803 74.414399,74.414399 0 0 1 0.36535,-0.07545 74.414399,74.414399 0 0 1 0.36587,-0.07441 74.414399,74.414399 0 0 1 0.36587,-0.07183 74.414399,74.414399 0 0 1 0.3669,-0.07028 74.414399,74.414399 0 0 1 0.36639,-0.06873 74.414399,74.414399 0 0 1 0.36742,-0.06718 74.414399,74.414399 0 0 1 0.36742,-0.06459 74.414399,74.414399 0 0 1 0.36742,-0.06253 74.414399,74.414399 0 0 1 0.36793,-0.06149 74.414399,74.414399 0 0 1 0.36846,-0.05943 74.414399,74.414399 0 0 1 0.36897,-0.05736 74.414399,74.414399 0 0 1 0.36845,-0.05581 74.414399,74.414399 0 0 1 0.37,-0.05374 74.414399,74.414399 0 0 1 0.36897,-0.05219 74.414399,74.414399 0 0 1 0.36949,-0.05013 74.414399,74.414399 0 0 1 0.37052,-0.04806 74.414399,74.414399 0 0 1 0.37052,-0.04651 74.414399,74.414399 0 0 1 0.37,-0.04393 74.414399,74.414399 0 0 1 0.37052,-0.04289 74.414399,74.414399 0 0 1 0.37104,-0.04082 74.414399,74.414399 0 0 1 0.37104,-0.03876 74.414399,74.414399 0 0 1 0.37155,-0.03721 74.414399,74.414399 0 0 1 0.37104,-0.03514 74.414399,74.414399 0 0 1 0.37155,-0.03307 74.414399,74.414399 0 0 1 0.37155,-0.03152 74.414399,74.414399 0 0 1 0.37259,-0.02997 74.414399,74.414399 0 0 1 0.37207,-0.02739 74.414399,74.414399 0 0 1 0.37155,-0.02585 74.414399,74.414399 0 0 1 0.37311,-0.02429 74.414399,74.414399 0 0 1 0.37258,-0.02223 74.414399,74.414399 0 0 1 0.37207,-0.02016 74.414399,74.414399 0 0 1 0.37259,-0.0181 74.414399,74.414399 0 0 1 0.37311,-0.01654 74.414399,74.414399 0 0 1 0.37258,-0.01497 74.414399,74.414399 0 0 1 0.37259,-0.01241 74.414399,74.414399 0 0 1 0.37362,-0.01138 74.414399,74.414399 0 0 1 0.3731,-0.0088 74.414399,74.414399 0 0 1 0.37311,-0.0072 74.414399,74.414399 0 0 1 0.37258,-0.0047 74.414399,74.414399 0 0 1 0.37311,-0.0031 74.414399,74.414399 0 0 1 0.37362,-0.0021 74.414399,74.414399 0 0 1 0.3731,0 74.414399,74.414399 0 0 1 0.37259,0.0021 74.414399,74.414399 0 0 1 0.37362,0.0041 74.414399,74.414399 0 0 1 0.37259,0.0062 74.414399,74.414399 0 0 1 0.3731,0.0067 74.414399,74.414399 0 0 1 0.37311,0.0093 74.414399,74.414399 0 0 1 0.3731,0.01138 74.414399,74.414399 0 0 1 0.37259,0.01291 74.414399,74.414399 0 0 1 0.3731,0.0155 74.414399,74.414399 0 0 1 0.37259,0.01704 74.414399,74.414399 0 0 1 0.37258,0.01963 74.414399,74.414399 0 0 1 0.37259,0.02119 74.414399,74.414399 0 0 1 0.37207,0.02326 74.414399,74.414399 0 0 1 0.37259,0.02429 74.414399,74.414399 0 0 1 0.37207,0.02687 74.414399,74.414399 0 0 1 0.37207,0.02842 74.414399,74.414399 0 0 1 0.37207,0.02997 74.414399,74.414399 0 0 1 0.37155,0.03256 74.414399,74.414399 0 0 1 0.37207,0.03359 74.414399,74.414399 0 0 1 0.37104,0.03566 74.414399,74.414399 0 0 1 0.37104,0.03772 74.414399,74.414399 0 0 1 0.37103,0.03979 74.414399,74.414399 0 0 1 0.37104,0.04134 74.414399,74.414399 0 0 1 0.37052,0.04289 74.414399,74.414399 0 0 1 0.26872,0.03307 97.627263,97.627263 0 0 0 -23.28695,-2.746606 z m -8.92556,65.695733 v 34.79425 l -8.92297,10.9213 a 74.414399,74.414399 0 0 1 -0.17156,-0.0811 74.414399,74.414399 0 0 1 -0.3359,-0.16278 74.414399,74.414399 0 0 1 -0.33486,-0.16485 74.414399,74.414399 0 0 1 -0.33435,-0.16588 74.414399,74.414399 0 0 1 -0.33331,-0.16743 74.414399,74.414399 0 0 1 -0.3328,-0.16898 74.414399,74.414399 0 0 1 -0.33176,-0.17105 74.414399,74.414399 0 0 1 -0.33021,-0.1726 74.414399,74.414399 0 0 1 -0.33021,-0.17415 74.414399,74.414399 0 0 1 -0.32918,-0.17622 74.414399,74.414399 0 0 1 -0.32815,-0.17725 74.414399,74.414399 0 0 1 -0.32763,-0.17932 74.414399,74.414399 0 0 1 -0.32607,-0.18035 74.414399,74.414399 0 0 1 -0.32505,-0.18242 74.414399,74.414399 0 0 1 -0.32504,-0.18396 74.414399,74.414399 0 0 1 -0.3235,-0.18604 74.414399,74.414399 0 0 1 -0.32298,-0.18707 74.414399,74.414399 0 0 1 -0.32194,-0.18862 74.414399,74.414399 0 0 1 -0.32091,-0.19068 74.414399,74.414399 0 0 1 -0.31988,-0.19224 74.414399,74.414399 0 0 1 -0.31884,-0.19378 74.414399,74.414399 0 0 1 -0.31781,-0.19534 74.414399,74.414399 0 0 1 -0.3173,-0.19637 74.414399,74.414399 0 0 1 -0.31574,-0.19896 74.414399,74.414399 0 0 1 -0.31471,-0.19947 74.414399,74.414399 0 0 1 -0.31419,-0.20205 74.414399,74.414399 0 0 1 -0.31316,-0.20309 74.414399,74.414399 0 0 1 -0.31161,-0.20516 74.414399,74.414399 0 0 1 -0.31057,-0.20619 74.414399,74.414399 0 0 1 -0.31006,-0.20774 74.414399,74.414399 0 0 1 -0.30903,-0.20928 74.414399,74.414399 0 0 1 -0.30747,-0.21084 74.414399,74.414399 0 0 1 -0.30696,-0.21291 74.414399,74.414399 0 0 1 -0.25683,-0.17932 z" />
  </g>
</svg>
